<?xml version="1.0" encoding="iso-8859-1"?>
<!-- Generator: Adobe Illustrator 19.0.0, SVG Export Plug-In . SVG Version: 6.00 Build 0)  -->
<svg version="1.1" id="Layer_1" xmlns="http://www.w3.org/2000/svg" xmlns:xlink="http://www.w3.org/1999/xlink" x="0px" y="0px"
	 viewBox="0 0 512 512" style="enable-background:new 0 0 512 512;" xml:space="preserve">
<g>
	<g>
		<path d="M365.379,172.605l-22.165,22.165c23.295,23.296,36.124,54.269,36.124,87.215c0,68.008-55.329,123.338-123.338,123.338
			s-123.338-55.329-123.338-123.338c0-32.946,12.829-63.919,36.124-87.215l-22.165-22.165
			c-29.216,29.215-45.306,68.062-45.306,109.38c0,85.294,69.391,154.685,154.685,154.685s154.685-69.391,154.685-154.685
			C410.685,240.666,394.595,201.82,365.379,172.605z"/>
	</g>
</g>
<g>
	<g>
		<rect x="240.327" y="91" width="31.347" height="190.976"/>
	</g>
</g>
<g>
	<g>
		<path d="M0,0.267v511.465h512V0.267H0z M480.653,480.386H31.347V31.614h449.306V480.386z"/>
	</g>
</g>
<g>
</g>
<g>
</g>
<g>
</g>
<g>
</g>
<g>
</g>
<g>
</g>
<g>
</g>
<g>
</g>
<g>
</g>
<g>
</g>
<g>
</g>
<g>
</g>
<g>
</g>
<g>
</g>
<g>
</g>
</svg>
